<svg width="1024" height="1024" viewBox="0 0 1024 1024" fill="none" xmlns="http://www.w3.org/2000/svg">
<path d="M138.291 773.261C137.508 772.59 139.746 769.008 153.29 749.868C172.094 723.116 203.659 677.672 210.039 668.27L215.411 660.099H272.16H328.797L345.475 636.37C354.653 623.274 365.622 607.604 369.988 601.336C374.241 595.18 380.957 585.666 384.762 580.069C388.68 574.584 395.284 564.958 399.537 558.802C403.679 552.646 416.887 533.506 428.863 516.269C440.84 499.031 455.838 477.205 462.33 467.803L474.083 450.789H505.424C522.661 450.789 555.009 450.677 577.283 450.565C599.557 450.453 618.138 450.677 618.474 451.013C618.809 451.349 616.235 455.602 612.765 460.415C609.183 465.228 603.699 473.063 600.565 477.652C597.431 482.242 588.476 495.114 580.641 506.195C564.187 529.812 562.844 531.715 539.562 565.518C500.611 622.043 488.298 639.728 481.694 648.794C477.777 654.055 474.643 658.756 474.643 659.204C474.643 659.652 540.906 660.211 621.832 660.323L769.02 660.659L751.895 685.843C742.493 699.723 726.263 723.34 715.853 738.451C705.444 753.561 695.706 767.777 694.139 770.127L691.34 774.269H603.139H514.938L512.251 770.127C510.796 767.777 506.095 760.053 501.73 753.002C489.418 732.966 486.955 728.937 476.322 712.147C461.995 689.537 458.861 684.836 457.853 684.164C457.293 683.829 450.913 692.335 443.414 702.857C436.027 713.49 426.401 727.258 422.035 733.414C417.67 739.57 409.499 751.323 403.791 759.494L393.493 774.381L266.116 774.045C196.047 773.821 138.515 773.485 138.291 773.261Z" fill="#1d1d1f"/>
<path d="M228.843 555.891C228.619 555.444 230.298 552.534 232.649 549.399C239.365 540.333 247.312 529.14 266.116 502.277C275.742 488.397 289.845 468.25 297.345 457.504C304.844 446.759 319.171 426.052 329.245 411.613C339.207 397.174 350.512 380.944 354.206 375.571C358.011 370.31 365.063 360.013 369.988 352.849C374.913 345.686 380.733 337.403 382.86 334.381C384.986 331.359 390.359 323.859 394.613 317.479C398.978 311.211 407.037 299.682 412.521 291.735C418.118 283.9 427.072 271.028 432.445 263.305L442.295 249.313H513.819C553.218 249.313 585.454 249.537 585.454 249.873C585.454 250.433 579.41 259.387 572.023 269.909C566.09 278.304 533.295 325.874 526.355 336.06C521.766 342.887 517.4 348.932 516.729 349.491C515.945 350.163 515.05 351.394 514.714 352.29C514.378 353.185 507.886 362.811 500.275 373.556C492.776 384.302 484.493 396.166 481.918 399.86C463.338 426.835 420.357 489.069 414.2 497.799C410.059 503.62 399.985 518.059 391.702 529.7C383.419 541.452 375.92 552.086 375.025 553.429L373.346 555.78L301.374 556.227C261.751 556.451 229.179 556.339 228.843 555.891Z" fill="#1d1d1f"/>
<path d="M580.305 334.381C563.852 357.775 560.718 362.476 561.277 363.259C561.613 363.931 808.42 363.819 808.756 363.147C808.868 363.035 821.74 344.343 837.522 321.509C853.192 298.787 867.855 277.297 870.206 273.939C872.444 270.581 877.033 263.753 880.503 258.94C883.861 254.015 886.212 249.762 885.764 249.426C885.316 249.09 869.982 248.866 851.849 249.09L818.83 249.426L803.831 249.874C801.928 248.754 638.733 249.09 638.285 250.209C638.062 250.881 634.256 256.589 629.891 262.97C625.413 269.35 617.466 280.766 612.206 288.49C602.02 303.376 591.275 318.823 580.305 334.381Z" fill="#1d1d1f"/>
</svg>
