<svg width="242" height="83" viewBox="0 0 242 83" fill="none" xmlns="http://www.w3.org/2000/svg">
<rect width="70" height="83" fill="white"/>
<rect x="172" width="69.9282" height="70" fill="white"/>
<path d="M172 0V70H177.866C177.866 53.9085 190.912 40.8663 207 40.8663C223.092 40.8663 236.134 53.9116 236.134 70H242V0H172Z" fill="#4DD684"/>
<path d="M206.933 54.95C198.619 54.95 191.881 61.6871 191.881 70H221.981C221.984 61.6903 215.247 54.95 206.933 54.95Z" fill="#4DD684"/>
<path d="M114.944 55V16H125.056V55H114.944ZM100 40.4301V30.5699H140V40.4301H100Z" fill="#D0D0D0"/>
<path d="M41.7218 39.6394H24.969V47.7319H41.3189C42.2865 47.7319 43.1715 47.3238 43.8981 46.6771C44.542 46.0304 44.9449 45.0586 44.9449 43.8448C44.9684 42.8039 44.6581 41.7831 44.0599 40.9328C43.4125 40.1236 42.6894 39.6394 41.7218 39.6394ZM42.2865 29.8523C43.0096 29.3682 43.3333 28.3134 43.3333 26.937C43.3333 25.7265 43.0096 24.8343 42.4483 24.2706C41.8696 23.7575 41.1266 23.4703 40.3547 23.4613H24.969V30.7411H40.031C40.8368 30.7411 41.6426 30.3365 42.2865 29.8523ZM66.8526 0H3.62603C1.61157 0 0 1.6185 0 3.56208V67.1435C0 69.0871 1.61157 70.2975 3.54683 70.2975H12.8891V83L24.4869 70.3771H66.8561C68.7913 70.3771 70 69.1667 70 67.1435V3.64162C70 1.69804 68.7913 0.0795417 66.7769 0.0795417L66.8526 0ZM56.2224 51.5292C55.3932 52.9969 54.1998 54.224 52.7583 55.0912C51.2259 56.0596 49.5351 56.9518 47.6033 57.3565C45.668 57.8406 43.5744 58.2452 41.4015 58.2452H12.8857V12.9411H45.2652C46.8767 12.9411 48.2472 13.2662 49.5351 13.9959C50.7438 14.6426 51.8733 15.5314 52.7583 16.5827C54.5627 18.796 55.5337 21.5731 55.4959 24.4331C55.4959 26.5358 54.9311 28.5555 53.8843 30.499C52.799 32.4514 51.1 33.9874 49.053 34.8669C51.6288 35.5932 53.6433 36.89 55.1756 38.7506C56.6219 40.6907 57.3485 43.198 57.3485 46.3555C57.3485 48.3752 56.9456 50.0767 56.1433 51.5326L56.2224 51.5292Z" fill="black"/>
</svg>
